<?xml version="1.0" standalone="no"?>
<svg xmlns="http://www.w3.org/2000/svg" viewBox="0 0 179.448 36" width="179.448" height="36"><g fill="#f29b18" color="#f29b18" transform="translate(0 3.9999999999999982) scale(0.5600001)"><svg width="50.0" height="50.0" x="0.0" y="0.0" viewBox="0 0 50 50"><path fill="currentColor" fill-rule="evenodd" d="M24.968 0C11.178 0 0 11.178 0 24.968c0 7.13 2.993 13.555 7.784 18.104V28.647h4.083v17.576a24.911 24.911 0 0 0 5.424 2.506V15.22h4.083v34.456c1.174.17 2.373.262 3.594.262.616 0 1.225-.03 1.83-.075V34.606h4.083v14.62a24.785 24.785 0 0 0 5.424-2.014V23.783h4.083V44.6c5.81-4.572 9.549-11.663 9.549-19.63C49.937 11.178 38.757 0 24.967 0"></path></svg></g><path fill="#01427c" fill-rule="nonzero" d="M8.40 17.52Q6 17.52 4.09 16.48Q2.18 15.43 1.09 13.48Q0 11.52 0 8.90L0 8.90Q0 6.29 1.09 4.33Q2.18 2.38 4.09 1.33Q6 0.29 8.40 0.29L8.40 0.29Q10.03 0.29 11.32 0.67Q12.60 1.06 13.87 1.78L13.87 1.78Q14.40 2.06 14.40 2.69L14.40 2.69Q14.40 3.05 14.14 3.32Q13.87 3.60 13.44 3.60L13.44 3.60Q13.20 3.60 13.01 3.50L13.01 3.50Q11.95 2.95 10.94 2.66Q9.94 2.38 8.62 2.38L8.62 2.38Q6.55 2.38 5.10 3.23Q3.65 4.08 2.92 5.56Q2.18 7.03 2.18 8.90L2.18 8.90Q2.18 10.78 2.92 12.25Q3.65 13.73 5.10 14.58Q6.55 15.43 8.62 15.43L8.62 15.43Q9.94 15.43 10.94 15.14Q11.95 14.86 13.01 14.30L13.01 14.30Q13.20 14.21 13.44 14.21L13.44 14.21Q13.87 14.21 14.14 14.47Q14.40 14.74 14.40 15.12L14.40 15.12Q14.40 15.74 13.87 16.03L13.87 16.03Q12.60 16.75 11.32 17.14Q10.03 17.52 8.40 17.52L8.40 17.52ZM18.17 17.40Q17.71 17.40 17.40 17.09Q17.09 16.78 17.09 16.32L17.09 16.32L17.09 6.02Q17.09 5.57 17.40 5.24Q17.71 4.92 18.17 4.92L18.17 4.92Q18.62 4.92 18.95 5.24Q19.27 5.57 19.27 6.02L19.27 6.02L19.27 7.06Q20.95 4.80 23.04 4.80L23.04 4.80L23.16 4.80Q23.62 4.80 23.92 5.11Q24.22 5.42 24.22 5.88L24.22 5.88Q24.22 6.34 23.90 6.62Q23.59 6.91 23.11 6.91L23.11 6.91L22.99 6.91Q21.84 6.91 20.88 7.48Q19.92 8.04 19.27 9.02L19.27 9.02L19.27 16.32Q19.27 16.78 18.95 17.09Q18.62 17.40 18.17 17.40L18.17 17.40ZM29.02 22.92Q28.58 22.92 28.28 22.61Q27.98 22.30 27.98 21.86L27.98 21.86Q27.98 21.67 28.06 21.48L28.06 21.48L29.62 17.47L25.10 6.48Q25.01 6.24 25.01 6.02L25.01 6.02Q25.01 5.57 25.32 5.24Q25.63 4.92 26.09 4.92L26.09 4.92Q26.42 4.92 26.70 5.11Q26.98 5.30 27.10 5.59L27.10 5.59L30.79 14.76L34.56 5.64Q34.87 4.92 35.57 4.92L35.57 4.92Q36.02 4.92 36.34 5.24Q36.65 5.57 36.65 6.02L36.65 6.02Q36.65 6.24 36.58 6.43L36.58 6.43L30.02 22.18Q29.69 22.92 29.02 22.92L29.02 22.92ZM40.25 22.92Q39.79 22.92 39.48 22.60Q39.17 22.27 39.17 21.82L39.17 21.82L39.17 6.00Q39.17 5.54 39.48 5.23Q39.79 4.92 40.25 4.92L40.25 4.92Q40.70 4.92 41.03 5.23Q41.35 5.54 41.35 6.00L41.35 6.00L41.35 6.62Q43.10 4.80 45.46 4.80L45.46 4.80Q46.94 4.80 48.28 5.56Q49.61 6.31 50.44 7.76Q51.26 9.22 51.26 11.16L51.26 11.16Q51.26 13.10 50.44 14.56Q49.61 16.01 48.28 16.76Q46.94 17.52 45.46 17.52L45.46 17.52Q43.10 17.52 41.35 15.70L41.35 15.70L41.35 21.82Q41.35 22.30 41.04 22.61Q40.73 22.92 40.25 22.92L40.25 22.92ZM45.14 15.48Q46.92 15.48 48 14.35Q49.08 13.22 49.08 11.16L49.08 11.16Q49.08 9.10 48 7.97Q46.92 6.84 45.14 6.84L45.14 6.84Q44.04 6.84 43.07 7.33Q42.10 7.82 41.35 8.64L41.35 8.64L41.35 13.68Q42.10 14.50 43.07 14.99Q44.04 15.48 45.14 15.48L45.14 15.48ZM58.44 17.52Q54.94 17.52 54.94 14.35L54.94 14.35L54.94 6.91L53.23 6.91Q53.04 6.91 52.91 6.78Q52.78 6.65 52.78 6.46L52.78 6.46Q52.78 6.22 52.99 6.05L52.99 6.05L56.26 2.86Q56.47 2.64 56.66 2.64L56.66 2.64Q56.86 2.64 56.99 2.78Q57.12 2.93 57.12 3.12L57.12 3.12L57.12 5.04L59.83 5.04Q60.24 5.04 60.50 5.30Q60.77 5.57 60.77 5.98L60.77 5.98Q60.77 6.36 60.50 6.64Q60.24 6.91 59.83 6.91L59.83 6.91L57.12 6.91L57.12 14.16Q57.12 15.10 57.56 15.35Q58.01 15.60 58.68 15.60L58.68 15.60Q59.16 15.60 59.64 15.46L59.64 15.46Q59.74 15.43 59.84 15.41Q59.95 15.38 60.12 15.38L60.12 15.38Q60.46 15.38 60.72 15.64Q60.98 15.89 60.98 16.25L60.98 16.25Q60.98 16.80 60.43 17.09L60.43 17.09Q59.50 17.52 58.44 17.52L58.44 17.52ZM68.62 17.52Q66.77 17.52 65.38 16.73Q63.98 15.94 63.23 14.48Q62.47 13.03 62.47 11.16L62.47 11.16Q62.47 9.29 63.23 7.84Q63.98 6.38 65.38 5.59Q66.77 4.80 68.62 4.80L68.62 4.80Q70.44 4.80 71.83 5.59Q73.22 6.38 73.99 7.84Q74.76 9.29 74.76 11.16L74.76 11.16Q74.76 13.03 73.99 14.48Q73.22 15.94 71.83 16.73Q70.44 17.52 68.62 17.52L68.62 17.52ZM68.62 15.53Q69.60 15.53 70.50 15.07Q71.40 14.62 71.99 13.63Q72.58 12.65 72.58 11.14L72.58 11.14Q72.58 9.65 71.99 8.66Q71.40 7.68 70.50 7.24Q69.60 6.79 68.62 6.79L68.62 6.79Q67.61 6.79 66.71 7.24Q65.81 7.68 65.23 8.66Q64.66 9.65 64.66 11.14L64.66 11.14Q64.66 12.65 65.23 13.63Q65.81 14.62 66.71 15.07Q67.61 15.53 68.62 15.53L68.62 15.53ZM78.98 17.40Q78.53 17.40 78.22 17.09Q77.90 16.78 77.90 16.32L77.90 16.32L77.90 1.63Q77.90 1.18 78.22 0.85Q78.53 0.53 78.98 0.53L78.98 0.53L84.46 0.53Q86.74 0.53 88.18 1.30Q89.62 2.06 90.24 3.26Q90.86 4.46 90.86 5.86L90.86 5.86Q90.86 7.25 90.24 8.45Q89.62 9.65 88.18 10.42Q86.74 11.18 84.46 11.18L84.46 11.18L80.09 11.18L80.09 16.32Q80.09 16.78 79.76 17.09Q79.44 17.40 78.98 17.40L78.98 17.40ZM80.09 9.12L84.24 9.12Q86.69 9.12 87.68 8.18Q88.68 7.25 88.68 5.86L88.68 5.86Q88.68 4.46 87.68 3.53Q86.69 2.59 84.24 2.59L84.24 2.59L80.09 2.59L80.09 9.12ZM94.49 17.40Q94.03 17.40 93.72 17.09Q93.41 16.78 93.41 16.32L93.41 16.32L93.41 6.02Q93.41 5.57 93.72 5.24Q94.03 4.92 94.49 4.92L94.49 4.92Q94.94 4.92 95.27 5.24Q95.59 5.57 95.59 6.02L95.59 6.02L95.59 7.06Q97.27 4.80 99.36 4.80L99.36 4.80L99.48 4.80Q99.94 4.80 100.24 5.11Q100.54 5.42 100.54 5.88L100.54 5.88Q100.54 6.34 100.22 6.62Q99.91 6.91 99.43 6.91L99.43 6.91L99.31 6.91Q98.16 6.91 97.20 7.48Q96.24 8.04 95.59 9.02L95.59 9.02L95.59 16.32Q95.59 16.78 95.27 17.09Q94.94 17.40 94.49 17.40L94.49 17.40ZM103.63 2.54Q103.13 2.54 102.77 2.18Q102.41 1.82 102.41 1.32L102.41 1.32L102.41 1.22Q102.41 0.72 102.77 0.36Q103.13 0 103.63 0L103.63 0L103.78 0Q104.28 0 104.64 0.36Q105.00 0.72 105.00 1.22L105.00 1.22L105.00 1.32Q105.00 1.82 104.64 2.18Q104.28 2.54 103.78 2.54L103.78 2.54L103.63 2.54ZM103.68 17.40Q103.22 17.40 102.91 17.09Q102.60 16.78 102.60 16.32L102.60 16.32L102.60 6.02Q102.60 5.57 102.91 5.24Q103.22 4.92 103.68 4.92L103.68 4.92Q104.16 4.92 104.47 5.23Q104.78 5.54 104.78 6.02L104.78 6.02L104.78 16.32Q104.78 16.78 104.46 17.09Q104.14 17.40 103.68 17.40L103.68 17.40ZM114.24 17.52Q112.51 17.52 111.05 16.75Q109.58 15.98 108.71 14.54Q107.83 13.10 107.83 11.16L107.83 11.16Q107.83 9.22 108.71 7.78Q109.58 6.34 111.05 5.57Q112.51 4.80 114.24 4.80L114.24 4.80Q115.51 4.80 116.44 5.12Q117.36 5.45 118.15 5.95L118.15 5.95Q118.63 6.26 118.63 6.79L118.63 6.79Q118.63 7.15 118.36 7.45Q118.08 7.75 117.72 7.75L117.72 7.75Q117.46 7.75 117.19 7.61L117.19 7.61Q116.40 7.20 115.84 7.02Q115.27 6.84 114.43 6.84L114.43 6.84Q112.37 6.84 111.19 8.03Q110.02 9.22 110.02 11.16L110.02 11.16Q110.02 13.10 111.19 14.29Q112.37 15.48 114.43 15.48L114.43 15.48Q115.27 15.48 115.84 15.30Q116.40 15.12 117.19 14.71L117.19 14.71Q117.46 14.57 117.72 14.57L117.72 14.57Q118.08 14.57 118.36 14.87Q118.63 15.17 118.63 15.53L118.63 15.53Q118.63 16.06 118.15 16.37L118.15 16.37Q117.36 16.87 116.44 17.20Q115.51 17.52 114.24 17.52L114.24 17.52ZM126.74 17.52Q123.82 17.52 122.17 15.85Q120.53 14.18 120.53 11.16L120.53 11.16Q120.53 9.46 121.15 8.02Q121.78 6.58 123.07 5.69Q124.37 4.80 126.26 4.80L126.26 4.80Q128.04 4.80 129.34 5.63Q130.63 6.46 131.30 7.84Q131.98 9.22 131.98 10.85L131.98 10.85Q131.98 11.30 131.68 11.62Q131.38 11.93 130.87 11.93L130.87 11.93L122.74 11.93Q122.93 13.61 123.98 14.54Q125.04 15.48 126.94 15.48L126.94 15.48Q127.94 15.48 128.70 15.29Q129.46 15.10 130.18 14.74L130.18 14.74Q130.37 14.64 130.61 14.64L130.61 14.64Q130.99 14.64 131.28 14.90Q131.57 15.17 131.57 15.58L131.57 15.58Q131.57 16.10 130.94 16.46L130.94 16.46Q130.01 16.99 129.10 17.26Q128.18 17.52 126.74 17.52L126.74 17.52ZM122.74 10.15L129.82 10.15Q129.74 8.98 129.20 8.18Q128.66 7.39 127.87 7.02Q127.08 6.65 126.26 6.65L126.26 6.65Q125.45 6.65 124.66 7.02Q123.86 7.39 123.34 8.18Q122.81 8.98 122.74 10.15L122.74 10.15ZM138.82 17.52Q136.42 17.52 134.45 16.44L134.45 16.44Q134.04 16.15 134.04 15.65L134.04 15.65Q134.04 15.26 134.30 14.98Q134.57 14.69 134.98 14.69L134.98 14.69Q135.19 14.69 135.41 14.78L135.41 14.78Q136.18 15.12 136.94 15.31Q137.71 15.50 138.67 15.50L138.67 15.50Q141.34 15.50 141.34 13.80L141.34 13.80Q141.34 13.25 140.72 12.96Q140.11 12.67 138.72 12.31L138.72 12.31Q137.30 11.98 136.38 11.62Q135.46 11.26 134.80 10.52Q134.14 9.79 134.14 8.59L134.14 8.59Q134.14 6.91 135.35 5.86Q136.56 4.80 138.82 4.80L138.82 4.80Q140.66 4.80 142.30 5.40L142.30 5.40Q142.63 5.50 142.81 5.76Q142.99 6.02 142.99 6.31L142.99 6.31Q142.99 6.70 142.72 6.98Q142.44 7.27 142.03 7.27L142.03 7.27Q141.91 7.27 141.72 7.22L141.72 7.22Q140.33 6.79 138.98 6.79L138.98 6.79Q137.69 6.79 136.96 7.26Q136.22 7.73 136.22 8.47L136.22 8.47Q136.22 9.19 136.90 9.53Q137.57 9.86 138.98 10.18L138.98 10.18Q140.40 10.54 141.29 10.88Q142.18 11.23 142.81 11.98Q143.45 12.72 143.45 13.97L143.45 13.97Q143.45 15.50 142.24 16.51Q141.02 17.52 138.82 17.52L138.82 17.52Z" transform="translate(36, 9.36)"></path></svg>